#!OML:ASF X:\für Bonn\!DataBase\2005_08_12_Daniel\c3d\Daniel.ASF
:FULLY-SPECIFIED
:DEGREES
673
root 3.2236 16.8174 -7.08214 -362.149 -12.3661 353.875
lowerback 10.638 -4.65094 4.31755
upperback 2.0666 -5.65486 0.989935
thorax -4.09693 -2.84981 -0.578768
lowerneck -0.586157 5.46508 -2.73286
upperneck 13.5641 7.85104 -3.46092
head 4.64504 3.52704 -0.367751
rclavicle 9.88954e-015 -1.19271e-015
rhumerus -47.5755 -43.2113 -52.2083
rradius 7.94466
rwrist 51.7654
rhand -20.3288 11.2016
rfingers 7.12502
rthumb 6.02242 -18.6928
lclavicle 9.88954e-015 -1.19271e-015
lhumerus -30.0454 47.9008 72.7637
lradius 13.7778
lwrist -52.6496
lhand -12.9274 -3.08986
lfingers 7.12502
lthumb 13.1632 26.4746
rfemur -24.8467 1.41704 21.0808
rtibia 43.6605
rfoot -14.848 6.32192
rtoes -9.40165
lfemur 3.25928 0.0416775 -16.2487
ltibia 66.9695
lfoot 10.1224 -8.52392
ltoes -6.22831
674
root 3.15469 16.8437 -6.90965 -362.389 -11.905 353.897
lowerback 10.9418 -4.53094 4.21081
upperback 2.09608 -5.48929 1.02449
thorax -4.21257 -2.76666 -0.486592
lowerneck -0.495121 5.35375 -2.60527
upperneck 13.5874 7.67564 -3.30629
head 4.63149 3.45659 -0.347401
rclavicle -6.31887e-014 1.59028e-015
rhumerus -47.4308 -43.5703 -52.0142
rradius 8.22319
rwrist 52.9012
rhand -20.1205 11.5069
rfingers 7.12502
rthumb 6.2235 -18.3817
lclavicle -6.31887e-014 1.59028e-015
lhumerus -32.21 50.2249 70.0909
lradius 13.2044
lwrist -57.6858
lhand -11.3007 -3.32334
lfingers 7.12502
lthumb 14.7308 26.1333
rfemur -23.7631 1.41204 21.1839
rtibia 43.5717
rfoot -15.4659 6.00662
rtoes -9.21949
lfemur 1.52583 0.360869 -16.1835
ltibia 69.4692
lfoot 9.0491 -7.51636
ltoes -5.3924
675
root 3.08802 16.8739 -6.73776 -362.623 -11.4761 353.915
lowerback 11.2143 -4.38867 4.09003
upperback 2.14195 -5.29849 1.06693
thorax -4.29137 -2.67038 -0.386855
lowerneck -0.379164 5.22602 -2.48841
upperneck 13.584 7.47562 -3.14491
head 4.60221 3.37483 -0.325017
rclavicle -2.74323e-014 1.07344e-014
rhumerus -47.4354 -43.8653 -51.6984
rradius 8.63941
rwrist 53.9725
rhand -19.8909 12.084
rfingers 7.12502
rthumb 6.44514 -17.798
lclavicle -2.74323e-014 1.07344e-014
lhumerus -34.2924 51.8983 67.6273
lradius 12.8378
lwrist -62.1472
lhand -9.56594 -3.87455
lfingers 7.12502
lthumb 16.4016 25.452
rfemur -22.6493 1.47279 21.2954
rtibia 43.3907
rfoot -16.0644 5.63828
rtoes -9.01511
lfemur -0.231338 0.639809 -16.1822
ltibia 71.741
lfoot 7.88703 -6.71451
ltoes -4.41492
676
root 3.02306 16.9042 -6.56662 -362.862 -11.0552 353.945
lowerback 11.4694 -4.23453 4.00344
upperback 2.19272 -5.09185 1.05749
thorax -4.36349 -2.56684 -0.364776
lowerneck -0.221883 5.09955 -2.30395
upperneck 13.5862 7.27076 -2.96306
head 4.56885 3.29517 -0.308531
rclavicle -5.87906e-014 2.94201e-014
rhumerus -47.5446 -44.184 -51.344
rradius 9.03625
rwrist 55.1124
rhand -19.799 12.7961
rfingers 7.12502
rthumb 6.53382 -17.0831
lclavicle -5.87906e-014 2.94201e-014
lhumerus -35.9948 52.6609 65.6678
lradius 12.6542
lwrist -65.7277
lhand -7.85411 -4.58086
lfingers 7.12502
lthumb 18.0492 24.6017
rfemur -21.5073 1.54564 21.4067
rtibia 43.1527
rfoot -16.6072 5.2337
rtoes -9.20976
lfemur -1.95344 0.838231 -16.2711
ltibia 73.7658
lfoot 6.63653 -6.08639
ltoes -3.51088
677
root 2.9627 16.9374 -6.39788 -363.086 -10.639 354.018
lowerback 11.7266 -4.0804 3.87109
upperback 2.23945 -4.89017 1.06991
thorax -4.43593 -2.46513 -0.294665
lowerneck -0.0983551 4.98617 -2.19955
upperneck 13.5727 7.09441 -2.83164
head 4.53592 3.22289 -0.293158
rclavicle 1.07095e-014 7.95139e-015
rhumerus -47.5386 -44.4872 -51.0059
rradius 9.38521
rwrist 56.4167
rhand -19.7695 13.4879
rfingers 7.12502
rthumb 6.56229 -16.3904
lclavicle 1.07095e-014 7.95139e-015
lhumerus -37.1005 52.6506 64.4996
lradius 12.5688
lwrist -68.2641
lhand -6.33516 -5.38266
lfingers 7.12502
lthumb 19.5101 23.6585
rfemur -20.3649 1.66574 21.47
rtibia 42.8768
rfoot -17.1815 4.80913
rtoes -9.48219
lfemur -3.69358 1.04219 -16.4404
ltibia 75.5454
lfoot 5.47973 -5.70926
ltoes -2.26104
678
root 2.90423 16.9687 -6.23139 -363.292 -10.2343 354.103
lowerback 11.9817 -3.90754 3.75161
upperback 2.26099 -4.66396 1.04334
thorax -4.53796 -2.35207 -0.276202
lowerneck 0.0836836 4.85262 -2.06339
upperneck 13.5446 6.8831 -2.66569
head 4.48565 3.13743 -0.274761
rclavicle 1.84124e-014 5.56597e-015
rhumerus -47.7271 -44.7567 -50.544
rradius 9.76909
rwrist 57.702
rhand -19.9427 14.3757
rfingers 7.12502
rthumb 6.39512 -15.5077
lclavicle 1.84124e-014 5.56597e-015
lhumerus -37.6559 51.9534 63.9878
lradius 12.5426
lwrist -69.7549
lhand -5.07861 -5.95384
lfingers 7.12502
lthumb 20.7179 22.9603
rfemur -19.2456 1.75431 21.5205
rtibia 42.5928
rfoot -17.7508 4.38476
rtoes -9.71372
lfemur -5.42521 1.17872 -16.681
ltibia 77.0691
lfoot 4.3535 -5.55199
ltoes -1.52218
679
root 2.84921 17.0017 -6.06571 -363.465 -9.84825 354.209
lowerback 12.2134 -3.72887 3.60182
upperback 2.27005 -4.43382 1.05382
thorax -4.63543 -2.23659 -0.205349
lowerneck 0.210707 4.7323 -2.00587
upperneck 13.5935 6.7031 -2.54178
head 4.47397 3.0587 -0.253037
rclavicle 2.1419e-014 -4.77083e-015
rhumerus -47.8349 -45.0109 -50.087
rradius 10.1048
rwrist 59.0247
rhand -20.255 15.2866
rfingers 7.12502
rthumb 6.09364 -14.6058
lclavicle 2.1419e-014 -4.77083e-015
lhumerus -37.7029 50.6339 64.2403
lradius 12.6015
lwrist -70.2237
lhand -4.20337 -6.38478
lfingers 7.12502
lthumb 21.5587 22.4353
rfemur -18.1732 1.90954 21.5596
rtibia 42.3077
rfoot -18.3318 3.91672
rtoes -10.1447
lfemur -7.11875 1.2744 -16.9878
ltibia 78.2924
lfoot 3.38399 -5.56515
ltoes -1.15079
680
root 2.79822 17.0309 -5.90176 -363.659 -9.49037 354.345
lowerback 12.4312 -3.53377 3.4801
upperback 2.3278 -4.18384 1.00852
thorax -4.68069 -2.11126 -0.215553
lowerneck 0.33095 4.60771 -1.88984
upperneck 13.5204 6.5159 -2.45237
head 4.4226 2.98065 -0.254161
rclavicle -2.8625e-014 7.95139e-016
rhumerus -44.2379 -41.4777 -55.0618
rradius 10.4977
rwrist 54.9582
rhand -20.6367 15.3487
rfingers 7.12502
rthumb 5.72513 -14.554
lclavicle -2.8625e-014 7.95139e-016
lhumerus -37.3641 48.9748 64.8805
lradius 12.6708
lwrist -69.797
lhand -3.75012 -6.63642
lfingers 7.12502
lthumb 21.9939 22.1331
rfemur -17.0963 2.02478 21.5534
rtibia 42.0192
rfoot -18.7978 3.51337
rtoes -10.4989
lfemur -8.73969 1.3757 -17.355
ltibia 79.25
lfoot 2.47833 -5.85931
ltoes -1.55184
681
root 2.74863 17.0632 -5.73815 -363.844 -9.15439 354.476
lowerback 12.6777 -3.29173 3.45907
upperback 2.3396 -3.85897 0.909898
thorax -4.79848 -1.95158 -0.347925
lowerneck 0.552131 4.42272 -1.78603
upperneck 13.4813 6.23842 -2.29794
head 4.36028 2.86042 -0.236901
rclavicle 8.02096e-014 -1.19271e-014
rhumerus -41.5895 -37.9544 -59.2228
rradius 11.0389
rwrist 50.8495
rhand -21.0963 15.3532
rfingers 7.12502
rthumb 5.28139 -14.561
lclavicle 8.02096e-014 -1.19271e-014
lhumerus -36.7652 46.8028 65.8817
lradius 12.7545
lwrist -68.4463
lhand -3.59624 -6.42876
lfingers 7.12502
lthumb 22.1416 22.3233
rfemur -16.0388 2.20469 21.5632
rtibia 41.7346
rfoot -19.2757 3.07864
rtoes -10.8347
lfemur -10.2664 1.43439 -17.7268
ltibia 79.9234
lfoot 1.69794 -6.3036
ltoes -2.09231
682
root 2.70279 17.0936 -5.57492 -363.952 -8.81348 354.62
lowerback 12.8604 -3.07645 3.45219
upperback 2.31578 -3.57032 0.808378
thorax -4.91996 -1.81059 -0.489344
lowerneck 0.735105 4.27531 -1.67891
upperneck 13.483 6.01845 -2.17441
head 4.32249 2.76566 -0.226547
rclavicle -1.14301e-014 -3.57812e-015
rhumerus -39.321 -34.0602 -63.0646
rradius 11.6422
rwrist 46.5761
rhand -21.5223 15.3499
rfingers 7.12502
rthumb 4.87003 -14.5741
lclavicle -1.14301e-014 -3.57812e-015
lhumerus -36.1417 44.3692 66.9786
lradius 12.8513
lwrist -66.2419
lhand -3.86768 -6.00618
lfingers 7.12502
lthumb 21.881 22.7766
rfemur -15.0645 2.37625 21.5564
rtibia 41.4363
rfoot -19.6888 2.61813
rtoes -11.1237
lfemur -11.8419 1.48806 -18.1266
ltibia 80.4014
lfoot 0.918479 -7.12739
ltoes -2.99983
683
root 2.65935 17.1253 -5.41207 -364.078 -8.48368 354.798
lowerback 13.0665 -2.87631 3.4092
upperback 2.30843 -3.30854 0.668186
thorax -5.03716 -1.68254 -0.647454
lowerneck 0.922875 4.15176 -1.55915
upperneck 13.4401 5.82788 -2.03835
head 4.26775 2.68723 -0.213514
rclavicle -3.88127e-014 1.70955e-014
rhumerus -37.5706 -30.4648 -66.3195
rradius 12.2947
rwrist 42.6991
rhand -21.9046 15.4621
rfingers 7.12502
rthumb 4.50092 -14.4701
lclavicle -3.88127e-014 1.70955e-014
lhumerus -35.5578 41.8089 68.0744
lradius 13.0241
lwrist -63.347
lhand -4.45598 -5.61961
lfingers 7.12502
lthumb 21.316 23.2281
rfemur -14.1095 2.48771 21.5111
rtibia 41.147
rfoot -20.0265 2.22764
rtoes -11.5327
lfemur -13.3638 1.53145 -18.5567
ltibia 80.6714
lfoot 0.22445 -7.77286
ltoes -2.58624
684
root 2.61805 17.1548 -5.24701 -364.145 -8.16371 354.973
lowerback 13.1949 -2.67114 3.39033
upperback 2.29422 -3.041 0.522248
thorax -5.1192 -1.55213 -0.831154
lowerneck 1.01668 4.03426 -1.51895
upperneck 13.453 5.64746 -1.85292
head 4.24745 2.61004 -0.167001
rclavicle -7.45443e-015 -1.27222e-014
rhumerus -36.2046 -26.9562 -69.1572
rradius 13.0061
rwrist 38.9638
rhand -22.2593 15.5747
rfingers 7.12502
rthumb 4.15838 -14.3645
lclavicle -7.45443e-015 -1.27222e-014
lhumerus -35.1755 39.4903 68.9355
lradius 13.28
lwrist -60.1993
lhand -5.12066 -5.19957
lfingers 7.12502
lthumb 20.6775 23.7189
rfemur -13.2041 2.65208 21.4639
rtibia 40.8567
rfoot -20.3189 1.79677
rtoes -11.8583
lfemur -14.8994 1.58122 -19.0009
ltibia 80.807
lfoot -0.534485 -8.47397
ltoes -1.65794
685
root 2.57838 17.1848 -5.08164 -364.215 -7.85179 355.138
lowerback 13.3247 -2.48831 3.34587
upperback 2.28743 -2.8048 0.418704
thorax -5.19083 -1.43643 -0.951704
lowerneck 1.13726 3.94873 -1.66453
upperneck 13.4191 5.50835 -1.62658
head 4.19822 2.54675 -0.0748722
rclavicle -3.29486e-014 1.51076e-014
rhumerus -35.11 -23.546 -71.6038
rradius 13.7995
rwrist 35.4433
rhand -22.5162 15.5611
rfingers 7.12502
rthumb 3.91027 -14.3827
lclavicle -3.29486e-014 1.51076e-014
lhumerus -35.0828 37.5036 69.5896
lradius 13.6717
lwrist -56.9294
lhand -5.8971 -4.96549
lfingers 7.12502
lthumb 19.9313 24.0324
rfemur -12.2966 2.87638 21.4401
rtibia 40.6051
rfoot -20.684 1.33442
rtoes -12.2323
lfemur -16.4052 1.61299 -19.4224
ltibia 80.8096
lfoot -1.32767 -9.1609
ltoes -0.510076
